<?xml version="1.0" encoding="UTF-8"?>
<svg version="1.1" xmlns="http://www.w3.org/2000/svg" width="330" height="124">
<path d="M0 0 C108.9 0 217.8 0 330 0 C330 40.92 330 81.84 330 124 C221.1 124 112.2 124 0 124 C0 83.08 0 42.16 0 0 Z " fill="#FEFDFD" transform="translate(0,0)"/>
<path d="M0 0 C3.63 0 7.26 0 11 0 C11 4.29 11 8.58 11 13 C12.32 13 13.64 13 15 13 C15 8.71 15 4.42 15 0 C22.26 0 29.52 0 37 0 C37 2.31 37 4.62 37 7 C38.32 7 39.64 7 41 7 C41 4.69 41 2.38 41 0 C47.93 0 54.86 0 62 0 C62.33 7.26 62.66 14.52 63 22 C71.25 22 79.5 22 88 22 C88.70381179 26.22287077 89.22950053 30.18561864 89.53515625 34.4296875 C89.62216797 35.63753906 89.70917969 36.84539062 89.79882812 38.08984375 C89.88583984 39.33894531 89.97285156 40.58804688 90.0625 41.875 C90.19881836 43.73705078 90.19881836 43.73705078 90.33789062 45.63671875 C90.42361328 46.84714844 90.50933594 48.05757812 90.59765625 49.3046875 C90.67508057 50.39765137 90.75250488 51.49061523 90.83227539 52.61669922 C91.02017127 56.40689013 91 60.20515455 91 64 C59.98 64 28.96 64 -3 64 C-3 47.89450558 -3 47.89450558 -2.59765625 40.99609375 C-2.55563583 40.22548111 -2.51361542 39.45486847 -2.47032166 38.66090393 C-2.38215437 37.05712086 -2.29219842 35.4534351 -2.20043945 33.84985352 C-2.06248403 31.43722064 -1.9301795 29.02432871 -1.79882812 26.61132812 C-1.30866165 17.73008382 -0.71887026 8.86606649 0 0 Z " fill="#DB534F" transform="translate(40,43)"/>
<path d="M0 0 C0.33 0 0.66 0 1 0 C1.33 7.26 1.66 14.52 2 22 C10.25 22 18.5 22 27 22 C27.70381179 26.22287077 28.22950053 30.18561864 28.53515625 34.4296875 C28.66567383 36.24146484 28.66567383 36.24146484 28.79882812 38.08984375 C28.9293457 39.96349609 28.9293457 39.96349609 29.0625 41.875 C29.15337891 43.11636719 29.24425781 44.35773438 29.33789062 45.63671875 C29.42361328 46.84714844 29.50933594 48.05757812 29.59765625 49.3046875 C29.67508057 50.39765137 29.75250488 51.49061523 29.83227539 52.61669922 C30.02017127 56.40689013 30 60.20515455 30 64 C11.85 64 -6.3 64 -25 64 C-25 58.6227826 -24.97965206 54.2268222 -24.25390625 49.06738281 C-23.67678031 44.36824585 -23.59521776 39.6179073 -23.39453125 34.890625 C-23.35714844 34.08882812 -23.31976563 33.28703125 -23.28125 32.4609375 C-23.25095703 31.74728027 -23.22066406 31.03362305 -23.18945312 30.29833984 C-22.95988946 27.51340123 -22.45939392 24.75636351 -22 22 C-14.41 22 -6.82 22 1 22 C0.67 19.69 0.34 17.38 0 15 C-0.06515057 12.35488687 -0.08591426 9.70831175 -0.0625 7.0625 C-0.05798828 6.37865234 -0.05347656 5.69480469 -0.04882812 4.99023438 C-0.0371956 3.32678396 -0.01926694 1.6633795 0 0 Z " fill="#EAAC52" transform="translate(101,43)"/>
<path d="M0 0 C3.2138627 1.60693135 5.16978419 2.94336169 7.375 5.75 C8.67666109 10.43597991 8.72161982 14.45367182 6.6875 18.8125 C3.75599805 22.61259512 1.91752577 24.61099656 -3.05078125 25.2734375 C-7.22372499 25.46082357 -10.09495374 25.43391645 -13.4375 22.75 C-17.30801976 18.59627147 -18.57066806 15.96117426 -18.4609375 10.1015625 C-17.60803882 6.21292275 -14.90176501 3.59354645 -12 1 C-8.28986322 -0.85506839 -4.04907177 -0.45334699 0 0 Z " fill="#0A0A0A" transform="translate(206,41)"/>
<path d="M0 0 C1.98 0 3.96 0 6 0 C6 3.3 6 6.6 6 10 C9.3 10 12.6 10 16 10 C16 6.7 16 3.4 16 0 C17.98 0 19.96 0 22 0 C22 8.25 22 16.5 22 25 C20.02 25 18.04 25 16 25 C16 21.37 16 17.74 16 14 C12.7 14 9.4 14 6 14 C6 17.63 6 21.26 6 25 C4.02 25 2.04 25 0 25 C0 16.75 0 8.5 0 0 Z " fill="#020202" transform="translate(239,41)"/>
<path d="M0 0 C3.58975819 1.42094595 4.62176495 2.22551871 6.3125 5.6875 C6.6528125 6.8321875 6.6528125 6.8321875 7 8 C0.375 8.25 0.375 8.25 -3 6 C-6.11304814 6.15760028 -6.11304814 6.15760028 -9 7 C-10.38550197 9.77100394 -10.1877467 11.9334706 -10 15 C-9.01 16.485 -9.01 16.485 -8 18 C-4.41642759 18.25015873 -4.41642759 18.25015873 -1 18 C-0.67 17.34 -0.34 16.68 0 16 C2.31 16 4.62 16 7 16 C6.45712148 19.80014965 4.88535357 21.53896313 2 24 C-1.72651773 25.24217258 -5.12942074 25.5341253 -9 25 C-13.05889277 22.89538893 -15.3129364 21.22910966 -17 17 C-17.64095668 12.9113711 -17.95574033 8.77291608 -15.94921875 5.05078125 C-11.27383086 -0.64519279 -6.96051631 -0.60287937 0 0 Z " fill="#0B0B0B" transform="translate(161,41)"/>
<path d="M0 0 C2.6875 1.8125 2.6875 1.8125 4 4 C4 4.99 4 5.98 4 7 C1.69 7 -0.62 7 -3 7 C-3.33 6.34 -3.66 5.68 -4 5 C-4.99 5 -5.98 5 -7 5 C-7 5.99 -7 6.98 -7 8 C-6.37351562 8.26554687 -5.74703125 8.53109375 -5.1015625 8.8046875 C-3.87566406 9.33449219 -3.87566406 9.33449219 -2.625 9.875 C-1.81289063 10.22304688 -1.00078125 10.57109375 -0.1640625 10.9296875 C2 12 2 12 4 14 C4.56617647 20.22794118 4.56617647 20.22794118 2.625 22.875 C-1.35458612 25.63009809 -5.28446071 25.61142872 -10 25 C-12.5625 23.25 -12.5625 23.25 -14 21 C-14 19.68 -14 18.36 -14 17 C-12.02 17 -10.04 17 -8 17 C-7.67 17.66 -7.34 18.32 -7 19 C-5.68 19 -4.36 19 -3 19 C-2.67 18.01 -2.34 17.02 -2 16 C-2.61488281 15.81824219 -3.22976563 15.63648438 -3.86328125 15.44921875 C-4.67152344 15.19785156 -5.47976563 14.94648437 -6.3125 14.6875 C-7.11300781 14.44386719 -7.91351563 14.20023438 -8.73828125 13.94921875 C-11.16112827 12.93237622 -12.41156336 12.08261693 -14 10 C-14.65041398 3.92946949 -14.65041398 3.92946949 -12.81640625 1.30859375 C-9.14090501 -1.33934801 -4.30873871 -0.5934191 0 0 Z " fill="#0B0B0B" transform="translate(279,41)"/>
<path d="M0 0 C3.96 0 7.92 0 12 0 C12.33 7.26 12.66 14.52 13 22 C9.04 22 5.08 22 1 22 C0.67 14.74 0.34 7.48 0 0 Z " fill="#A63A35" transform="translate(89,43)"/>
<path d="M0 0 C2.31 0 4.62 0 7 0 C7.99 2.97 8.98 5.94 10 9 C10.66 9 11.32 9 12 9 C12.28875 8.071875 12.5775 7.14375 12.875 6.1875 C14 3 14 3 16 0 C19.125 -0.1875 19.125 -0.1875 22 0 C20.87448408 3.88814592 19.35081426 7.26789179 17.4375 10.8125 C14.9428482 15.64772217 14.26175991 19.59029518 14 25 C12.02 25 10.04 25 8 25 C7.9690625 23.205625 7.9690625 23.205625 7.9375 21.375 C7.31415845 15.2682008 4.34615853 10.25198515 1.49609375 4.94140625 C0 2 0 2 0 0 Z " fill="#070707" transform="translate(286,41)"/>
<path d="M0 0 C3.12876874 1.26640639 4.36384002 2.83395328 5.91015625 5.80859375 C7.29867193 10.18659128 6.84955585 14.51524395 6.625 19.0625 C2.005 19.0625 -2.615 19.0625 -7.375 19.0625 C-7.80852601 7.21278902 -7.80852601 7.21278902 -4.375 2.0625 C-2.375 0.0625 -2.375 0.0625 0 0 Z " fill="#FCFDFD" transform="translate(71.375,22.9375)"/>
<path d="M0 0 C6.6 0 13.2 0 20 0 C20 1.65 20 3.3 20 5 C17.69 5 15.38 5 13 5 C13 11.6 13 18.2 13 25 C11.02 25 9.04 25 7 25 C7 18.4 7 11.8 7 5 C4.69 5 2.38 5 0 5 C0 3.35 0 1.7 0 0 Z " fill="#080808" transform="translate(216,41)"/>
<path d="M0 0 C1.98 0 3.96 0 6 0 C6 6.93 6 13.86 6 21 C8.64 21 11.28 21 14 21 C14 22.32 14 23.64 14 25 C9.38 25 4.76 25 0 25 C0 16.75 0 8.5 0 0 Z " fill="#080808" transform="translate(172,41)"/>
<path d="M0 0 C0.66 0 1.32 0 2 0 C2.06058594 1.13179688 2.12117188 2.26359375 2.18359375 3.4296875 C2.26799917 4.91147145 2.35264717 6.3932416 2.4375 7.875 C2.47681641 8.62136719 2.51613281 9.36773437 2.55664062 10.13671875 C2.71573624 14.19986864 2.71573624 14.19986864 4 18 C5.47906892 18.02689216 6.95827483 18.04634621 8.4375 18.0625 C9.67306641 18.07990234 9.67306641 18.07990234 10.93359375 18.09765625 C12.99163938 18.23267348 12.99163938 18.23267348 14 17 C14.23701239 14.14122091 14.42219182 11.30116703 14.5625 8.4375 C14.60568359 7.63119141 14.64886719 6.82488281 14.69335938 5.99414062 C14.79975262 3.99631195 14.90040888 1.9981793 15 0 C16.32 0.33 17.64 0.66 19 1 C19.13559675 3.56428515 19.23433188 6.12135216 19.3125 8.6875 C19.35439453 9.40873047 19.39628906 10.12996094 19.43945312 10.87304688 C19.53587884 15.09649312 19.37389777 16.53826981 16.60546875 19.95703125 C12.53847763 23.1459913 10.19434103 23.44019839 5 23 C2.24670979 21.20437595 0.47372539 19.94745078 -1 17 C-1.09791023 14.30170926 -1.1390625 11.63515539 -1.125 8.9375 C-1.12886719 8.19177734 -1.13273437 7.44605469 -1.13671875 6.67773438 C-1.12663501 1.12663501 -1.12663501 1.12663501 0 0 Z " fill="#EAE6DD" transform="translate(88,73)"/>
<path d="M0 0 C3.05623277 2.09110663 3.86463014 3.29306849 4.5625 6.9375 C3.7998726 11.08958249 2.40406682 12.55795207 -1 15 C-4.1875 15 -4.1875 15 -7 14 C-9.54014875 10.18977687 -9.58606955 7.46529184 -9 3 C-6.89524812 -0.74178112 -4.00297686 -0.57185384 0 0 Z " fill="#F4F4F4" transform="translate(204,46)"/>
<path d="M0 0 C2.4375 0.75 2.4375 0.75 4.4375 1.75 C4.4375 6.37 4.4375 10.99 4.4375 15.75 C1.1375 15.75 -2.1625 15.75 -5.5625 15.75 C-5.6435206 13.64646505 -5.70169907 11.54204048 -5.75 9.4375 C-5.78480469 8.26574219 -5.81960937 7.09398437 -5.85546875 5.88671875 C-5.5625 2.75 -5.5625 2.75 -4.2109375 0.81640625 C-2.5625 -0.25 -2.5625 -0.25 0 0 Z " fill="#EDA94F" transform="translate(53.5625,56.25)"/>
<path d="M0 0 C3.90870012 0.18180001 5.76406973 0.81535892 8.875 3.25 C12.5229097 7.98179341 11.37616403 14.36589873 11 20 C8.69 20 6.38 20 4 20 C3.96261719 18.97519531 3.92523438 17.95039062 3.88671875 16.89453125 C3.82102921 15.53381938 3.75458291 14.17314389 3.6875 12.8125 C3.66494141 12.13896484 3.64238281 11.46542969 3.61914062 10.77148438 C3.38404446 6.39014677 2.57557314 3.55608624 0 0 Z " fill="#FCFCFC" transform="translate(76,22)"/>
<path d="M0 0 C-1.875 4.75 -1.875 4.75 -3 7 C-3.22950319 9.204364 -3.41075933 11.41392173 -3.5625 13.625 C-3.64628906 14.81351563 -3.73007812 16.00203125 -3.81640625 17.2265625 C-3.87699219 18.14179687 -3.93757813 19.05703125 -4 20 C-5.98 20 -7.96 20 -10 20 C-10.05441656 18.10448978 -10.09298035 16.2085208 -10.125 14.3125 C-10.14820313 13.25675781 -10.17140625 12.20101562 -10.1953125 11.11328125 C-9.99561985 7.93018035 -9.45627692 5.82308973 -8 3 C-5.07076189 0.82184858 -3.67718093 0 0 0 Z " fill="#FEFEFE" transform="translate(65,22)"/>
<path d="M0 0 C2.0625 0.4375 2.0625 0.4375 4 1 C3.360625 1.763125 2.72125 2.52625 2.0625 3.3125 C-0.818801 7.06692251 -1.18321383 10.08188224 -1.5625 14.6875 C-1.706875 16.440625 -1.85125 18.19375 -2 20 C2.29 20 6.58 20 11 20 C11 20.33 11 20.66 11 21 C3.74 21 -3.52 21 -11 21 C-11 20.67 -11 20.34 -11 20 C-9.02 20 -7.04 20 -5 20 C-5.04640625 19.13117187 -5.0928125 18.26234375 -5.140625 17.3671875 C-5.49950836 5.90855457 -5.49950836 5.90855457 -1 1 C-0.67 0.67 -0.34 0.34 0 0 Z " fill="#E1D5D6" transform="translate(66,22)"/>
<path d="M0 0 C1.32 0 2.64 0 4 0 C4.99862699 7.36487404 5.10331031 14.57313685 5 22 C3.68 22 2.36 22 1 22 C0.67 14.74 0.34 7.48 0 0 Z " fill="#C2433F" transform="translate(89,43)"/>
<path d="M0 0 C1.32 0 2.64 0 4 0 C4.33 7.26 4.66 14.52 5 22 C3.68 22 2.36 22 1 22 C0.67 14.74 0.34 7.48 0 0 Z " fill="#C2443F" transform="translate(97,43)"/>
<path d="M0 0 C0.66 0 1.32 0 2 0 C2 3.63 2 7.26 2 11 C-0.33294775 11.04241723 -2.66702567 11.04092937 -5 11 C-6 10 -6 10 -6.125 7 C-6 4 -6 4 -5 3 C-3.33382885 2.95936168 -1.66611905 2.957279 0 3 C0 2.01 0 1.02 0 0 Z " fill="#FF5A5A" transform="translate(166,78)"/>
<path d="M0 0 C1.32 0.33 2.64 0.66 4 1 C4 6.28 4 11.56 4 17 C3.34 17.33 2.68 17.66 2 18 C2 17.34 2 16.68 2 16 C1.34 16 0.68 16 0 16 C0 10.72 0 5.44 0 0 Z " fill="#EADFCA" transform="translate(103,73)"/>
<path d="M0 0 C0.66 0 1.32 0 2 0 C2 4.95 2 9.9 2 15 C5.96 15 9.92 15 14 15 C14 15.33 14 15.66 14 16 C7.07 16 0.14 16 -7 16 C-7 15.67 -7 15.34 -7 15 C-5.02 15 -3.04 15 -1 15 C-1.01160156 14.08476563 -1.02320312 13.16953125 -1.03515625 12.2265625 C-1.04417969 11.03804687 -1.05320312 9.84953125 -1.0625 8.625 C-1.07410156 7.44164062 -1.08570312 6.25828125 -1.09765625 5.0390625 C-1 2 -1 2 0 0 Z " fill="#E0D1D1" transform="translate(88,27)"/>
<path d="M0 0 C1.134375 0.020625 2.26875 0.04125 3.4375 0.0625 C3.4375 2.7025 3.4375 5.3425 3.4375 8.0625 C1.10455225 8.10491723 -1.22952567 8.10342937 -3.5625 8.0625 C-4.5625 7.0625 -4.5625 7.0625 -4.6875 4.0625 C-4.50687014 -0.27261656 -4.44520527 0.07798606 0 0 Z " fill="#FF5656" transform="translate(215.5625,80.9375)"/>
<path d="M0 0 C1.98 0 3.96 0 6 0 C6.33 1.65 6.66 3.3 7 5 C5.35 5.33 3.7 5.66 2 6 C2 7.32 2 8.64 2 10 C1.34 10 0.68 10 0 10 C0 6.7 0 3.4 0 0 Z " fill="#FF8C8C" transform="translate(202,79)"/>
<path d="M0 0 C0.99 0.33 1.98 0.66 3 1 C3.73046875 3.06640625 3.73046875 3.06640625 4.1875 5.5625 C4.34605469 6.38878906 4.50460938 7.21507813 4.66796875 8.06640625 C4.77753906 8.70449219 4.88710937 9.34257813 5 10 C4.05125 9.814375 3.1025 9.62875 2.125 9.4375 C-0.89868793 8.71313368 -0.89868793 8.71313368 -3 10 C-2.69201674 8.51988629 -2.378482 7.04092675 -2.0625 5.5625 C-1.88847656 4.73878906 -1.71445313 3.91507812 -1.53515625 3.06640625 C-1 1 -1 1 0 0 Z " fill="#FF7878" transform="translate(153,79)"/>
<path d="M0 0 C1.2065625 0.0309375 1.2065625 0.0309375 2.4375 0.0625 C2.7675 1.3825 3.0975 2.7025 3.4375 4.0625 C1.4575 4.0625 -0.5225 4.0625 -2.5625 4.0625 C-2.2325 4.7225 -1.9025 5.3825 -1.5625 6.0625 C-0.2425 6.0625 1.0775 6.0625 2.4375 6.0625 C2.4375 6.7225 2.4375 7.3825 2.4375 8.0625 C0.0625 8.1875 0.0625 8.1875 -2.5625 8.0625 C-3.2225 7.4025 -3.8825 6.7425 -4.5625 6.0625 C-3.83457637 0.09352625 -3.83457637 0.09352625 0 0 Z " fill="#FF7878" transform="translate(234.5625,80.9375)"/>
<path d="M0 0 C3.38115833 -0.29036665 6.62753411 -0.4327734 10 0 C12.6875 2.3125 12.6875 2.3125 14 5 C13.67 5.99 13.34 6.98 13 8 C12.34 8 11.68 8 11 8 C10.1646875 6.824375 10.1646875 6.824375 9.3125 5.625 C6.45226918 2.3782515 4.16371937 1.88078679 0 1 C0 0.67 0 0.34 0 0 Z " fill="#DFE1E2" transform="translate(75,21)"/>
<path d="M0 0 C0.33 0 0.66 0 1 0 C1 2.64 1 5.28 1 8 C1.66 8 2.32 8 3 8 C3 5.36 3 2.72 3 0 C3.33 0 3.66 0 4 0 C4 4.29 4 8.58 4 13 C2.68 13 1.36 13 0 13 C0 8.71 0 4.42 0 0 Z " fill="#DDBCBA" transform="translate(51,43)"/>
<path d="M0 0 C1.98 0.495 1.98 0.495 4 1 C3.67 2.65 3.34 4.3 3 6 C1.68 5.67 0.36 5.34 -1 5 C-0.67 3.35 -0.34 1.7 0 0 Z " fill="#FFF0F0" transform="translate(213,82)"/>
<path d="M0 0 C1.98 0.495 1.98 0.495 4 1 C3.67 2.65 3.34 4.3 3 6 C1.68 5.67 0.36 5.34 -1 5 C-0.67 3.35 -0.34 1.7 0 0 Z " fill="#FFF0F0" transform="translate(162,82)"/>
</svg>
